<svg width="85" height="81" viewBox="0 0 85 81" fill="none" xmlns="http://www.w3.org/2000/svg">
<path d="M37.6092 5.88755C40.7858 4.18119 44.0505 4.36379 47.3783 5.88755V7.40502C45.0832 6.77536 39.8193 6.77537 37.6092 7.33261V5.88755Z" fill="#FFB617"/>
<path d="M39.9074 0.733939V4.55908C41.724 4.0711 43.4681 4.04277 45.1335 4.55908V0.771719C43.3138 -0.270357 41.576 -0.232578 39.9074 0.737088V0.733939ZM42.5268 3.00384C42.0892 3.00384 41.7334 2.64808 41.7334 2.21048C41.7334 1.77287 42.0892 1.41711 42.5268 1.41711C42.9644 1.41711 43.3201 1.77287 43.3201 2.21048C43.3201 2.64808 42.9644 3.00384 42.5268 3.00384Z" fill="#FFB617"/>
<path d="M53 41.5487C66.7485 42.9717 64.6391 37.4245 71.7038 34.7485C69.4875 34.2668 67.1168 34.3392 64.6297 34.8555L68.5808 30.0449C70.879 27.9923 72.9852 26.9282 74.7293 27.6932C75.3716 27.9765 75.7147 28.7258 75.4408 29.3712C75.2677 29.7773 74.9214 29.9379 74.4365 29.9033L74.4838 29.6451C74.5876 29.0879 74.2099 28.5747 73.6432 28.5684C73.4007 28.5684 73.2182 28.6597 73.0796 28.8329C72.8939 29.0627 72.8498 29.3775 72.9191 29.6672C73.1457 30.6526 74.32 30.7722 75.2393 29.9599C76.0264 29.2673 76.2531 28.156 75.9446 27.1517C75.7179 26.4118 75.2803 25.7727 74.6821 25.2124C71.5118 23.0621 69.2513 24.2364 67.1672 26.0466C66.1818 26.7802 65.1901 27.3311 64.1763 27.4728C64.4502 24.419 66.2385 22.1019 68.1085 19.8225C66.5879 22.2184 65.5395 24.4379 65.1901 26.3867C69.3175 25.0675 70.5232 21.7272 70.073 17.2472C67.63 17.795 65.7599 19.2716 64.6517 21.9885C64.5195 19.8855 64.0032 18.494 63.2539 17.5369C62.2779 16.2933 60.6282 15.7235 59.1013 16.1296C58.3237 16.3343 57.8452 16.7687 57.6154 17.3921C57.5146 17.666 57.4831 17.9588 57.4926 18.2515C57.565 21.0598 59.2304 21.5761 61.9096 20.6442C63.5498 23.4588 63.915 27.6113 63.0933 32.998C64.3873 29.7112 66.972 25.7255 71.5496 25.8326C66.5407 26.6417 64.9791 30.6274 61.6829 35.844C63.1185 32.6832 62.8415 29.686 61.1634 26.8211C60.6062 31.2917 58.5315 31.5089 59.8884 37.1978L57.3918 39.6125C61.3775 39.2631 63.3704 36.3163 66.739 35.7087C62.9422 37.4591 61.9977 40.2075 56.7748 39.9746C55.6729 40.7585 54.4167 41.2843 53.0031 41.5519L53 41.5487ZM60.8958 36.417C61.3051 34.5249 61.5066 32.2834 61.5161 29.7112C62.1142 32.4282 61.9222 34.6697 60.8958 36.417Z" fill="#FFB617"/>
<path d="M62.9715 4.66599C59.5809 3.11389 54.4523 4.0993 51.7637 8.21093C51.1404 7.78592 50.5737 7.83314 50.0605 8.39039L47.4443 8.32427V7.75128C43.9686 7.34201 40.6566 7.2759 37.6123 7.75128L37.5839 11.397C25.4568 19.869 24.5973 29.1878 33.9225 40.4114C33.3401 42.4231 33.7777 43.3771 35.4274 43.6195C39.6209 44.0886 44.2772 44.1799 49.3994 43.6856C51.1687 43.61 51.9463 42.7254 51.1624 40.5625C60.497 29.3925 59.4959 19.6454 47.4443 11.4222V10.0212L50.0637 9.98655C50.5328 10.5469 51.1026 10.5784 51.7511 10.1817C55.2331 14.4036 60.1192 15.1214 63.2329 13.4906C66.8187 11.6079 66.6519 6.35346 62.9684 4.66913L62.9715 4.66599ZM50.4068 40.4019C51.0648 42.0894 50.7059 42.6844 49.5096 42.9237C47.2113 43.333 40.1309 43.3739 37.0267 43.1252C34.5931 42.9111 34.1114 42.5774 34.804 40.4019C25.1105 27.8844 27.0121 19.699 37.7476 12.3037C41.0565 14.2776 44.2268 14.1234 47.29 12.2627C60.1129 20.782 58.2429 30.2551 50.4068 40.4051V40.4019ZM50.0164 9.57099H47.4443V8.8154C47.4443 8.79651 50.0164 8.8154 50.0164 8.8154V9.57099ZM62.663 13.2135C59.7257 14.4823 55.2583 13.733 52.0376 9.74099C51.7763 9.41672 51.7197 9.1806 52.0565 8.73669C55.2552 4.41727 60.072 3.4665 63.2832 5.66713C66.082 7.58758 65.7798 11.8692 62.663 13.2167V13.2135Z" fill="#FFB617"/>
<path d="M30.8121 25.1613C31.108 27.384 31.6527 27.2927 32.3736 25.5391C33.1922 22.2649 34.6278 19.5196 36.4002 17.0545C36.734 15.8456 36.4601 15.4615 35.1346 16.5036C32.5625 18.4555 31.0639 21.2952 30.8121 25.1613Z" fill="#FFB617"/>
<path d="M48.1401 42.4609L36.7087 42.442C36.4852 42.442 36.2617 42.42 36.0507 42.3507C35.5313 42.1839 35.3896 41.869 35.7139 41.3653C36.0759 40.8616 36.3782 40.6916 36.8441 40.5908C37.0802 40.5405 37.3226 40.5216 37.5651 40.5216H47.8127C48.6973 40.5027 49.286 40.6853 49.3396 41.2394C49.8968 42.3287 49.1444 42.4294 48.1369 42.4609H48.1401Z" fill="#FFB617"/>
<path d="M28.0007 40.4021C22.7745 40.635 21.8332 37.8866 18.0364 36.1362C21.4019 36.7469 23.3948 39.6906 27.3836 40.04L24.887 37.6253C26.2439 31.9332 24.1692 31.7192 23.612 27.2486C21.934 30.1135 21.6569 33.1107 23.0925 36.2715C19.7963 31.0549 18.2347 27.0692 13.2259 26.2601C17.8034 26.153 20.3913 30.1387 21.6821 33.4255C20.8604 28.0388 21.2256 23.8894 22.8658 21.0717C25.545 22.0036 27.2105 21.4873 27.2829 18.679C27.2892 18.3894 27.2577 18.0935 27.1601 17.8196C26.9303 17.1962 26.4517 16.7649 25.6741 16.5571C24.1472 16.151 22.4975 16.7208 21.5215 17.9644C20.7691 18.9215 20.2528 20.3098 20.1237 22.416C19.0155 19.7022 17.1454 18.2225 14.7024 17.6747C14.2522 22.1547 15.458 25.495 19.5854 26.8142C19.2359 24.8654 18.1875 22.649 16.6669 20.25C18.537 22.5294 20.3252 24.8433 20.5991 27.9003C19.5885 27.7555 18.5936 27.2077 17.6082 26.4741C15.5241 24.6639 13.2668 23.4896 10.0933 25.6399C9.49831 26.2002 9.05756 26.8393 8.83088 27.5792C8.5255 28.5803 8.75217 29.6948 9.53609 30.3874C10.4554 31.1965 11.6297 31.0801 11.8564 30.0946C11.9225 29.805 11.8815 29.4902 11.6958 29.2604C11.5573 29.0903 11.3715 28.9959 11.1323 28.9959C10.5656 29.0022 10.1878 29.5154 10.2917 30.0726L10.3389 30.3308C9.85407 30.3685 9.50776 30.208 9.3346 29.7987C9.05755 29.1533 9.40072 28.404 10.0461 28.1207C11.7903 27.3557 13.8933 28.4229 16.1947 30.4724L20.1457 35.283C17.6586 34.7667 15.288 34.6911 13.0716 35.1759C20.1363 37.852 18.027 43.3992 31.7754 41.9762C30.3619 41.7086 29.1089 41.1797 28.0038 40.3989L28.0007 40.4021ZM23.2594 30.1419C23.2657 32.714 23.4703 34.9556 23.8796 36.8477C22.8564 35.1004 22.6612 32.8557 23.2594 30.1419Z" fill="#FFB617"/>
<path d="M48.2188 16.4248H37.5966C37.3573 16.4248 37.1464 16.5885 37.0897 16.8183C36.734 18.2224 36.0413 19.4629 35.2071 20.6183C34.7254 21.2889 34.357 22.035 34.1241 22.8252C33.6109 24.5505 33.0316 25.8381 32.3799 26.7039C32.0462 27.1478 31.9045 27.7082 31.999 28.256C33.57 37.3796 37.266 40.1092 42.6653 39.7219C42.8857 39.7062 43.1092 39.7093 43.3264 39.7219C53.722 40.4618 56.6436 20.7946 48.222 16.4216L48.2188 16.4248ZM46.8682 37.0963C46.1189 37.4772 45.2815 37.6472 44.4409 37.6472H41.3871C40.5623 37.6472 39.7374 37.5119 38.9755 37.197C37.8138 36.7185 36.9134 35.922 36.3814 34.6658C35.7989 32.7643 36.3184 32.1094 37.6784 32.4054C37.987 32.4715 38.2987 32.525 38.6135 32.5407C42.7597 32.7674 45.3035 32.44 46.9249 31.7915C48.3101 31.2909 49.2924 31.3822 49.2578 32.9752C49.1696 35.0562 48.3038 36.3596 46.8682 37.0931V37.0963ZM50.0606 30.507C49.9126 30.5416 49.7583 30.551 49.6072 30.551C47.6679 30.5699 45.8639 30.7935 44.3181 31.4042C44.0694 31.5018 43.8018 31.5616 43.5374 31.5428C42.9833 31.5018 42.8731 31.1807 43.2005 30.5888C43.3705 30.2771 43.6098 30.0032 43.8931 29.786C45.313 28.6873 47.0068 28.3473 48.9713 28.7534C49.5033 28.8636 50.0008 29.1312 50.3502 29.5468C50.7595 30.0347 50.6965 30.3653 50.0637 30.5038L50.0606 30.507Z" fill="#FFB617"/>
<path d="M19.5035 50.7725H22.5888V51.0023L21.6223 51.1503V58.9296H24.7611L25.6206 56.6093H25.9039V59.172H19.5004V58.9517L20.4669 58.7942V51.1503L19.5004 51.0023V50.7725H19.5035Z" fill="#FFB617"/>
<path d="M33.3622 56.8706C33.3622 57.7112 33.1261 58.3377 32.6601 58.7565C32.191 59.172 31.4292 59.3798 30.3713 59.3798C29.3135 59.3798 28.5894 59.15 28.114 58.6935C27.6387 58.2339 27.3994 57.6294 27.3994 56.8706V51.1503L26.4329 51.0023V50.7725H29.5182V51.0023L28.5516 51.1503V56.8706C28.5516 58.2905 29.3293 59.002 30.8814 59.002C32.4335 59.002 33.1072 58.2905 33.1072 56.8706V51.4116L32.1312 51.0023V50.7725H34.3665V51.0023L33.359 51.4116V56.8706H33.3622Z" fill="#FFB617"/>
<path d="M37.1621 58.9517V59.172H34.653V58.9517L35.6919 58.3629L38.0972 55.1517L35.44 51.1503L34.5491 51.0023V50.7725H37.7288V51.0023L36.9008 51.1282L38.9378 54.2135L40.9652 51.506L39.7154 51.0023V50.7725H42.2245V51.0023L41.2265 51.5595L39.0857 54.4245L41.9947 58.8131L42.8983 58.9548V59.1689H39.7059V58.9548L40.5339 58.8226L38.2451 55.3689L35.9249 58.4542L37.1621 58.9485V58.9517Z" fill="#FFB617"/>
<path d="M49.8244 56.8706C49.8244 57.7112 49.5883 58.3377 49.1223 58.7565C48.6533 59.172 47.8914 59.3798 46.8336 59.3798C45.7757 59.3798 45.0516 59.15 44.5763 58.6935C44.1009 58.2339 43.8616 57.6294 43.8616 56.8706V51.1503L42.8951 51.0023V50.7725H45.9804V51.0023L45.0139 51.1503V56.8706C45.0139 58.2905 45.7915 59.002 47.3436 59.002C48.8957 59.002 49.5694 58.2905 49.5694 56.8706V51.4116L48.5934 51.0023V50.7725H50.8287V51.0023L49.8213 51.4116V56.8706H49.8244Z" fill="#FFB617"/>
<path d="M58.7466 58.4479L58.9261 58.6368C58.5483 59.065 58.1044 59.2759 57.5944 59.2759C57.2008 59.2759 56.908 59.1815 56.7129 58.9926C56.5177 58.8037 56.3854 58.4826 56.313 58.0261L56.1147 56.6188C55.9667 55.605 55.4063 55.0982 54.4367 55.0982H53.6181V58.7942L54.5846 58.9517V59.172H51.4993V58.9517L52.4658 58.7942V51.1503L51.4993 51.0023V50.7725H54.4398C55.5795 50.7725 56.4075 50.9519 56.9175 51.3077C57.4275 51.6634 57.6825 52.2081 57.6825 52.9353C57.6825 54.1411 56.9553 54.8369 55.4976 55.0258V55.0887C56.5964 55.243 57.2323 55.8443 57.4086 56.8927L57.544 57.7931C57.6007 58.1425 57.6605 58.3881 57.7235 58.5329C57.7864 58.6778 57.8777 58.7628 57.9974 58.7911C58.2366 58.832 58.4885 58.7187 58.7529 58.4448L58.7466 58.4479ZM54.4304 51.0338H53.6118V54.8558H54.7893C55.2993 54.8558 55.696 54.6984 55.9793 54.3867C56.2627 54.075 56.4043 53.6122 56.4043 53.0014V52.7811C56.4043 51.6162 55.7463 51.0338 54.4304 51.0338Z" fill="#FFB617"/>
<path d="M62.9023 55.2556V58.7942L63.8783 58.9517V59.172H60.793V58.9517L61.769 58.7942V55.6019L59.2189 51.1503L58.3909 51.0023V50.7725H61.5517V51.0023L60.5758 51.1503L62.7796 54.9596L64.807 51.506L63.5477 51.0023V50.7725H65.8995V51.0023L65.0904 51.5154L62.9055 55.2524L62.9023 55.2556Z" fill="#FFB617"/>
<path d="M3.45992 66.7656H2.27932V69.6558L3.24899 69.8132V70.0335H0.147949V69.8132L1.11761 69.6558V61.9771L0.147949 61.8292V61.5962H3.45992C5.51259 61.5962 6.53893 62.4588 6.53893 64.1809C6.53893 65.903 5.51259 66.7656 3.45992 66.7656ZM3.3151 61.8606H2.28247V66.5232H3.3151C4.61534 66.5232 5.26703 65.8149 5.26703 64.3981V63.9763C5.26703 62.5659 4.61534 61.8606 3.3151 61.8606Z" fill="#FFB617"/>
<path d="M11.403 64.1179H11.6769V67.4614H11.403L10.7702 65.8999H9.41019V69.7911H12.7222L13.5879 67.4614H13.8618V70.0335H7.27881V69.8132L8.24847 69.6558V61.9771L7.27881 61.8292V61.5962H13.6289V64.0109H13.3455L12.5333 61.8606H9.41019V65.6575H10.7828L11.4062 64.1179H11.403Z" fill="#FFB617"/>
<path d="M22.1197 69.3094L22.2992 69.4983C21.9182 69.9265 21.4743 70.1406 20.958 70.1406C20.5645 70.1406 20.2685 70.0461 20.0733 69.8572C19.8781 69.6683 19.7428 69.3441 19.6735 68.8876L19.472 67.474C19.3241 66.454 18.7605 65.9439 17.7846 65.9439H16.9629V69.6558L17.9325 69.8132V70.0335H14.8315V69.8132L15.8011 69.6558V61.9771L14.8315 61.8292V61.5962H17.7846C18.9305 61.5962 19.7617 61.7756 20.2748 62.1345C20.788 62.4934 21.0462 63.0381 21.0462 63.7716C21.0462 64.9806 20.3158 65.6826 18.8518 65.8715V65.9345C19.9569 66.0888 20.596 66.6932 20.7723 67.7479L20.9108 68.6546C20.9675 69.0072 21.0273 69.2528 21.0902 69.3976C21.1532 69.5424 21.2445 69.6274 21.3641 69.6558C21.6034 69.6967 21.8553 69.5833 22.1229 69.3063L22.1197 69.3094ZM17.7846 61.8606H16.9629V65.7015H18.1435C18.6566 65.7015 19.0565 65.5441 19.3398 65.2293C19.6231 64.9145 19.768 64.4517 19.768 63.8378V63.6142C19.768 62.4431 19.1068 61.8575 17.7846 61.8575V61.8606Z" fill="#FFB617"/>
<path d="M25.5922 69.8163V70.0367H22.4912V69.8163L23.4609 69.6589V61.9803L22.4912 61.8323V61.5994H28.8413V64.1715H28.5579L27.7457 61.8607H24.6226V65.8149H26.4045L27.0279 64.2754H27.3112V67.6189H27.0279L26.4045 66.0573H24.6226V69.6558L25.5922 69.8132V69.8163Z" fill="#FFB617"/>
<path d="M36.3813 67.7259C36.3813 68.5696 36.1452 69.2024 35.673 69.618C35.2007 70.0367 34.4357 70.2445 33.3748 70.2445C32.3138 70.2445 31.5865 70.0147 31.108 69.555C30.6295 69.0954 30.3902 68.4846 30.3902 67.7259V61.9771L29.4205 61.8292V61.5962H32.5216V61.8292L31.5519 61.9771V67.7259C31.5519 69.1552 32.3327 69.8667 33.8942 69.8667C35.4558 69.8667 36.1295 69.152 36.1295 67.7259V62.2416L35.1472 61.8292V61.5962H37.3951V61.8292L36.3813 62.2416V67.7259Z" fill="#FFB617"/>
<path d="M39.0511 69.3913V61.9771L38.0814 61.8292V61.5962H40.4143L43.062 68.3681L45.7632 61.5962H47.8946V61.8292L46.9249 61.9771V69.6558L47.8946 69.8132V70.0335H44.7935V69.8132L45.7632 69.6558V62.292L42.6401 70.1406H42.4512L39.3092 61.9771V69.3913L40.323 69.8132V70.0335H38.0657V69.8132L39.0574 69.3913H39.0511Z" fill="#FFB617"/>
<path d="M52.8153 64.1179H53.0892V67.4614H52.8153L52.1825 65.8999H50.8225V69.7911H54.1345L55.0002 67.4614H55.2741V70.0335H48.6911V69.8132L49.6608 69.6558V61.9771L48.6911 61.8292V61.5962H55.0411V64.0109H54.7578L53.9456 61.8606H50.8225V65.6575H52.1951L52.8185 64.1179H52.8153Z" fill="#FFB617"/>
<path d="M58.9041 65.818C58.9041 65.1569 59.0016 64.5556 59.2 64.0141C59.3983 63.4726 59.6722 63.0066 60.028 62.6162C60.3837 62.2259 60.8024 61.9236 61.2873 61.7095C61.7721 61.4955 62.3042 61.3884 62.8803 61.3884C63.4564 61.3884 63.9885 61.4986 64.4796 61.7158C64.9708 61.9331 65.3895 62.2385 65.7389 62.6288C66.0915 63.0192 66.3654 63.4852 66.5606 64.0267C66.7558 64.5682 66.8566 65.1663 66.8566 65.8212C66.8566 66.476 66.759 67.0616 66.5669 67.6031C66.3749 68.1446 66.101 68.6137 65.7484 69.0072C65.3958 69.4008 64.9771 69.7061 64.4891 69.9265C64.0011 70.1438 63.4627 70.2539 62.8803 70.2539C62.2979 70.2539 61.7627 70.1438 61.2778 69.9265C60.793 69.7093 60.3743 69.4039 60.0217 69.0135C59.6691 68.6231 59.3952 68.1572 59.2 67.6157C59.0048 67.0742 58.9041 66.476 58.9041 65.8212V65.818ZM65.5469 66.6303V65.0058C65.5469 64.4863 65.4808 64.0172 65.3454 63.6017C65.2132 63.1861 65.0274 62.8335 64.7913 62.5407C64.5552 62.2479 64.275 62.0244 63.9476 61.867C63.6202 61.7095 63.2644 61.6308 62.8772 61.6308C62.4899 61.6308 62.1342 61.7095 61.8068 61.867C61.4793 62.0244 61.1991 62.2511 60.963 62.5407C60.7269 62.8335 60.5443 63.1861 60.4089 63.6017C60.2767 64.0172 60.2074 64.4832 60.2074 65.0058V66.6303C60.2074 67.1498 60.2735 67.6188 60.4026 68.0376C60.5317 68.4563 60.7174 68.812 60.9567 69.1017C61.196 69.3945 61.4762 69.618 61.8005 69.7723C62.1247 69.9265 62.4836 70.0052 62.8772 70.0052C63.2707 70.0052 63.6202 69.9265 63.9476 69.7723C64.275 69.618 64.5583 69.3945 64.7976 69.1017C65.0369 68.8089 65.2195 68.4563 65.3517 68.0376C65.4808 67.6188 65.5469 67.1498 65.5469 66.6303Z" fill="#FFB617"/>
<path d="M70.8958 69.8163V70.0367H67.7947V69.8163L68.7644 69.6589V61.9803L67.7947 61.8323V61.5994H70.8958V61.8323L69.9261 61.9803V69.6589L70.8958 69.8163Z" fill="#FFB617"/>
<path d="M71.6986 61.5962H74.7997V61.8292L73.83 61.9771V69.7943H76.9845L77.8503 67.4646H78.1337V70.0367H71.6986V69.8163L72.6683 69.6589V61.9803L71.6986 61.8323V61.5993V61.5962Z" fill="#FFB617"/>
<path d="M84.0492 61.3853H84.2822V63.5387H84.0492L83.2905 61.9992C82.7616 61.7536 82.1886 61.6308 81.5715 61.6308C80.9545 61.6308 80.4791 61.7882 80.1265 62.0999C79.7739 62.4116 79.6007 62.824 79.6007 63.334C79.6007 63.7118 79.7267 64.0109 79.9754 64.2281C80.2241 64.4454 80.5924 64.6185 81.0773 64.7445L82.9662 65.2387C83.577 65.393 84.0335 65.6575 84.3326 66.0352C84.6317 66.413 84.7796 66.9829 84.7796 67.7479C84.7796 68.5129 84.5404 69.1394 84.0587 69.5833C83.577 70.0272 82.9316 70.2476 82.1225 70.2476C81.4677 70.2476 80.8254 70.0619 80.1926 69.6872L79.2953 70.1406H79.0624V67.4299H79.2953L80.202 69.3913C80.7845 69.8006 81.4551 70.0021 82.2075 70.0021C82.8246 70.0021 83.3377 69.8383 83.7438 69.5141C84.1468 69.1867 84.3515 68.7302 84.3515 68.1414C84.3515 67.7133 84.2224 67.3764 83.9611 67.1277C83.6998 66.879 83.2779 66.6806 82.6955 66.5327L80.945 66.0793C80.3343 65.9188 79.8715 65.6417 79.563 65.2513C79.2544 64.8609 79.1002 64.3981 79.1002 63.8629C79.1002 63.1168 79.3174 62.5186 79.755 62.0653C80.1895 61.6119 80.7971 61.3853 81.5684 61.3853C82.2075 61.3853 82.7805 61.4954 83.2873 61.7127L84.0587 61.3853H84.0492Z" fill="#FFB617"/>
<path d="M34.8828 78.4898H34.971V79.5602H34.8828L34.6813 79.0596H34.2469V80.3063H35.3078L35.5849 79.5602H35.673V80.385H33.5668V80.3126L33.8785 80.2622V77.8034L33.5668 77.7562V77.6807H35.6006V78.4551H35.5093L35.248 77.7657H34.25V78.9809H34.6876L34.886 78.4866L34.8828 78.4898Z" fill="#FFB617"/>
<path d="M37.7068 77.6176H37.7823V78.3071H37.7068L37.4644 77.8128C37.2943 77.7341 37.1117 77.6932 36.9134 77.6932C36.7151 77.6932 36.5639 77.7436 36.4506 77.8443C36.3373 77.9451 36.2806 78.0773 36.2806 78.2379C36.2806 78.3575 36.3215 78.4551 36.4002 78.5243C36.4789 78.5936 36.5986 78.6503 36.7528 78.6881L37.3573 78.8455C37.5525 78.8958 37.6973 78.9808 37.7949 79.1005C37.8894 79.2201 37.9397 79.4027 37.9397 79.6483C37.9397 79.8938 37.8642 80.0953 37.7099 80.237C37.5556 80.3787 37.3479 80.4511 37.0897 80.4511C36.8788 80.4511 36.6741 80.3913 36.4726 80.2716L36.1862 80.4165H36.1106V79.5475H36.1862L36.4758 80.174C36.6615 80.3063 36.8756 80.3692 37.118 80.3692C37.3164 80.3692 37.4801 80.3157 37.6092 80.2118C37.7382 80.1079 37.8044 79.96 37.8044 79.7742C37.8044 79.6388 37.7634 79.5286 37.6784 79.4499C37.5934 79.3712 37.4612 79.3083 37.2723 79.261L36.7119 79.1162C36.5167 79.0627 36.3688 78.9746 36.2712 78.8518C36.1736 78.729 36.1232 78.5779 36.1232 78.4079C36.1232 78.1686 36.1924 77.9766 36.331 77.8317C36.4695 77.6869 36.6647 77.6145 36.9103 77.6145C37.1149 77.6145 37.2975 77.6491 37.4612 77.7184L37.7068 77.6145V77.6176Z" fill="#FFB617"/>
<path d="M40.3072 78.4363L40.0554 77.7688H39.495V80.2623L39.8067 80.3126V80.385H38.815V80.3126L39.1266 80.2623V77.7688H38.5694L38.3144 78.4363H38.2168V77.6838H40.4143V78.4363H40.3135H40.3072Z" fill="#FFB617"/>
<path d="M44.5007 79.5286V80.3818H42.8038V80.1205L43.5153 79.3933C43.8963 79.006 44.0883 78.6282 44.0883 78.2599C44.0883 77.8915 43.9309 77.6901 43.6192 77.6901C43.5059 77.6901 43.4083 77.7215 43.3264 77.7814C43.2446 77.8412 43.2005 77.923 43.2005 78.0206C43.2005 78.1403 43.2603 78.2284 43.38 78.2882C43.38 78.3701 43.3548 78.4299 43.3044 78.474C43.254 78.518 43.1974 78.5369 43.1281 78.5369C43.0557 78.5369 42.9959 78.5118 42.9424 78.4582C42.892 78.4047 42.8637 78.3323 42.8637 78.241C42.8637 78.0584 42.9424 77.9073 43.1029 77.7908C43.2635 77.6712 43.4524 77.6145 43.6696 77.6145C43.9467 77.6145 44.1513 77.6806 44.2835 77.8097C44.4157 77.9388 44.4819 78.1088 44.4819 78.3197C44.4819 78.4425 44.4598 78.5527 44.4157 78.6534C44.3717 78.7542 44.3056 78.8486 44.2206 78.9431C44.1355 79.0375 44.0002 79.1603 43.8207 79.3177L43.0148 80.0292H44.2741L44.4126 79.5286H44.5007Z" fill="#FFB617"/>
<path d="M46.651 80.0922C46.4747 80.3315 46.2386 80.4543 45.9395 80.4543C45.7883 80.4543 45.653 80.4228 45.5333 80.363C45.4137 80.3 45.3098 80.2119 45.2248 80.0922C45.1398 79.9726 45.0768 79.8246 45.0296 79.6483C44.9855 79.472 44.9635 79.2674 44.9635 79.0375C44.9635 78.8077 44.9855 78.6031 45.0328 78.4236C45.08 78.2473 45.143 78.0994 45.228 77.9797C45.313 77.8601 45.4137 77.7688 45.5365 77.709C45.6561 77.6492 45.7915 77.6177 45.9395 77.6177C46.0874 77.6177 46.2228 77.6492 46.3424 77.709C46.4621 77.7688 46.5628 77.8601 46.651 77.9797C46.736 78.0994 46.8021 78.2473 46.8493 78.4236C46.8965 78.5999 46.9186 78.8046 46.9186 79.0375C46.9186 79.5003 46.8304 79.8498 46.6541 80.0954L46.651 80.0922ZM46.4841 79.3587V78.707C46.4841 78.3607 46.4369 78.1057 46.3393 77.9419C46.2417 77.7782 46.1095 77.6964 45.9426 77.6964C45.7758 77.6964 45.6404 77.7782 45.5428 77.9419C45.4452 78.1057 45.398 78.3607 45.398 78.707V79.3587C45.398 79.705 45.4452 79.96 45.5428 80.1268C45.6404 80.2937 45.7726 80.3756 45.9426 80.3756C46.1126 80.3756 46.2448 80.2937 46.3393 80.13C46.4369 79.9663 46.4841 79.7113 46.4841 79.3587Z" fill="#FFB617"/>
<path d="M48.9618 79.5286V80.3818H47.2649V80.1205L47.9764 79.3933C48.3573 79.006 48.5494 78.6282 48.5494 78.2599C48.5494 77.8915 48.392 77.6901 48.0803 77.6901C47.967 77.6901 47.8694 77.7215 47.7875 77.7814C47.7056 77.8412 47.6616 77.923 47.6616 78.0206C47.6616 78.1403 47.7214 78.2284 47.841 78.2882C47.841 78.3701 47.8158 78.4299 47.7655 78.474C47.7151 78.518 47.6584 78.5369 47.5892 78.5369C47.5168 78.5369 47.4569 78.5118 47.4034 78.4582C47.353 78.4047 47.3247 78.3323 47.3247 78.241C47.3247 78.0584 47.4034 77.9073 47.564 77.7908C47.7245 77.6712 47.9134 77.6145 48.1307 77.6145C48.4077 77.6145 48.6123 77.6806 48.7446 77.8097C48.8768 77.9388 48.9429 78.1088 48.9429 78.3197C48.9429 78.4425 48.9209 78.5527 48.8768 78.6534C48.8327 78.7542 48.7666 78.8486 48.6816 78.9431C48.5966 79.0375 48.4612 79.1603 48.2818 79.3177L47.4758 80.0292H48.7351L48.8737 79.5286H48.9618Z" fill="#FFB617"/>
<path d="M51.1121 80.0922C50.9358 80.3315 50.6997 80.4543 50.4006 80.4543C50.2495 80.4543 50.1141 80.4228 49.9945 80.363C49.8748 80.3 49.7709 80.2119 49.6859 80.0922C49.6009 79.9726 49.538 79.8246 49.4907 79.6483C49.4467 79.472 49.4246 79.2674 49.4246 79.0375C49.4246 78.8077 49.4467 78.6031 49.4939 78.4236C49.5411 78.2473 49.6041 78.0994 49.6891 77.9797C49.7741 77.8601 49.8748 77.7688 49.9976 77.709C50.1172 77.6492 50.2526 77.6177 50.4006 77.6177C50.5486 77.6177 50.6839 77.6492 50.8036 77.709C50.9232 77.7688 51.0239 77.8601 51.1121 77.9797C51.1971 78.0994 51.2632 78.2473 51.3104 78.4236C51.3577 78.5999 51.3797 78.8046 51.3797 79.0375C51.3797 79.5003 51.2915 79.8498 51.1152 80.0954L51.1121 80.0922ZM50.9452 79.3587V78.707C50.9452 78.3607 50.898 78.1057 50.8004 77.9419C50.7028 77.7782 50.5706 77.6964 50.4037 77.6964C50.2369 77.6964 50.1015 77.7782 50.0039 77.9419C49.9063 78.1057 49.8591 78.3607 49.8591 78.707V79.3587C49.8591 79.705 49.9063 79.96 50.0039 80.1268C50.1015 80.2937 50.2337 80.3756 50.4037 80.3756C50.5737 80.3756 50.706 80.2937 50.8004 80.13C50.898 79.9663 50.9452 79.7113 50.9452 79.3587Z" fill="#FFB617"/>
<path d="M85 73.6414H0V73.8523H85V73.6414Z" fill="#FFB617"/>
<path d="M85 47.7847H0V47.9956H85V47.7847Z" fill="#FFB617"/>
</svg>
