<svg width="52" height="53" viewBox="0 0 52 53" fill="none" xmlns="http://www.w3.org/2000/svg">
<g clip-path="url(#clip0_23_1540)">
<rect y="0.385071" width="52" height="52" rx="26" fill="#FFDBD1" fill-opacity="0.4"/>
<path d="M36.6075 47.7854C30.5494 45.3476 28.553 42.3203 29.0702 37.9586H22.4155C22.9327 42.3203 20.9364 45.3476 14.8782 47.7854C8.82008 50.2231 8.00635 52.885 8.00635 52.885H43.5035C43.5035 52.885 42.6726 50.2231 36.6075 47.7854Z" fill="#FF8482"/>
<path d="M25.702 45.0612C27.4007 45.0623 29.0733 44.643 30.5706 43.8406C29.2293 42.1786 28.8052 40.2547 29.0776 37.979H22.4161C22.6885 40.2857 22.2575 42.22 20.8955 43.8923C22.3792 44.6658 24.0288 45.067 25.702 45.0612Z" fill="#FF5B59"/>
<path d="M36.6081 47.7858C34.8366 47.1294 33.1822 46.1922 31.7085 45.0102L26.1261 50.1822L19.8335 44.9378C18.6371 45.9722 17.0096 46.9135 14.8719 47.772C8.81373 50.2098 8 52.8716 8 52.8716H43.5041C43.5041 52.8716 42.6731 50.2236 36.6081 47.7858Z" fill="#6F87ED"/>
<path d="M17.1374 30.0498C18.2511 32.1842 17.7856 34.6322 16.103 35.5184C14.4204 36.4045 12.1309 35.3908 11.0138 33.2565C9.89661 31.1222 10.3655 28.6706 12.0482 27.7845C13.7308 26.8984 16.0203 27.9052 17.1374 30.0498Z" fill="#FF8482"/>
<path d="M16.1545 34.1188C16.1545 34.0326 16.1338 33.9568 16.1235 33.874C16.135 33.924 16.1431 33.9746 16.1476 34.0257C16.1492 33.6615 16.0874 33.2998 15.9649 32.9568C15.7374 31.9409 15.2086 31.0172 14.4476 30.3067C13.6866 29.5961 12.7289 29.1318 11.6997 28.9744C13.0551 29.7612 14.2299 30.8244 15.1477 32.0948C13.934 31.6018 12.0445 32.65 12.0445 32.65C14.2719 32.0569 15.2856 32.5465 15.7511 33.1154C15.9237 33.4333 16.0591 33.7699 16.1545 34.1188Z" fill="#FF5B59"/>
<path d="M34.2667 30.0498C33.1495 32.1842 33.6185 34.6322 35.3011 35.5184C36.9837 36.4045 39.2732 35.3908 40.3903 33.2565C41.5075 31.1222 41.0386 28.6706 39.3559 27.7845C37.6733 26.8984 35.3838 27.9052 34.2667 30.0498Z" fill="#FF8482"/>
<path d="M35.2458 34.1188C35.2458 34.0326 35.27 33.9568 35.2769 33.874C35.2769 33.9361 35.2562 33.9843 35.2528 34.0257C35.2521 33.6613 35.3151 33.2996 35.4389 32.9568C35.6669 31.9399 36.1967 31.0155 36.9591 30.3049C37.7214 29.5943 38.6806 29.1305 39.711 28.9744C38.3556 29.7612 37.1808 30.8244 36.263 32.0948C37.4802 31.6018 39.3662 32.65 39.3662 32.65C37.1354 32.0569 36.1216 32.5465 35.6562 33.1154C35.4831 33.4339 35.3455 33.7703 35.2458 34.1188Z" fill="#FF5B59"/>
<path d="M38.9867 20.978C40.3659 17.9679 42.0416 12.6476 35.2387 9.5479C35.287 9.57203 32.3286 7.07913 27.0704 11.6167C25.3946 13.089 23.1465 13.7338 21.0157 13.0304C18.8848 12.327 16.0919 12.3994 14.5403 16.2577C14.1601 17.1324 13.9934 18.085 14.0542 19.0368C13.5611 18.4196 12.8887 18.0024 12.2612 19.0023C11.7544 19.785 12.1716 23.2502 13.399 26.3845C13.399 26.3845 14.1128 33.9149 17.5367 35.0872L20.9157 30.4531C23.7189 30.3876 27.2083 30.2945 30.0805 30.2324L33.6216 35.0872C36.0731 34.2494 37.1385 30.1738 37.5489 27.9085L37.9488 27.4637C39.528 25.719 40.1279 23.2985 39.1591 21.2987C39.1004 21.1849 39.0453 21.0849 38.9867 20.978Z" fill="#420E2F"/>
<path d="M21.0158 13.0222C18.8918 12.3154 16.0921 12.3981 14.5232 16.253C14.3673 16.6314 14.2438 17.0225 14.1543 17.4219L14.2439 17.6357C14.2439 17.6357 16.3196 12.7809 21.0158 13.0222Z" fill="#7C1A59"/>
<path d="M35.2286 9.54709C35.2665 9.54709 33.4804 8.05755 30.2048 9.54709C30.8462 9.54709 39.0283 9.62984 40.0834 17.6499C40.5868 14.8777 39.9282 11.6848 35.2286 9.54709Z" fill="#7C1A59"/>
<path d="M22.5813 17.891C20.6959 17.8909 18.8867 18.6346 17.5464 19.9607C16.2062 21.2867 15.4432 23.088 15.4232 24.9732L15.3508 31.7968C15.3508 38.0343 19.9849 43.0959 25.6948 43.0959C31.4047 43.0959 36.0388 38.0343 36.0388 31.7968L36.0181 24.556C36.0181 20.8736 33.6425 15.7912 29.9566 15.7912L22.5813 17.891Z" fill="#FDB193"/>
<path opacity="0.39" d="M26.5186 38.244C26.5186 38.244 28.3736 38.2992 29.0356 36.8234C29.0356 36.8234 29.5631 37.8992 28.2977 38.5474C27.0323 39.1956 26.5186 38.244 26.5186 38.244Z" fill="#FF8282"/>
<g style="mix-blend-mode:multiply" opacity="0.55">
<path d="M36.0287 24.556C36.0287 20.8736 33.653 15.7912 29.9671 15.7912L22.5815 17.891C20.6961 17.8909 18.8868 18.6347 17.5466 19.9607C16.2063 21.2867 15.4434 23.088 15.4234 24.9732L15.3889 28.204L16.4233 26.4283C16.4233 26.3973 17.1405 23.3561 23.6951 23.2734C25.9846 23.2423 28.7706 22.5838 30.5912 19.946C31.2428 21.9045 32.3324 23.6664 33.6288 24.725C34.3172 25.3074 35.1519 25.6901 36.0424 25.8318L36.0287 24.556Z" fill="#FDB193"/>
</g>
<path d="M28.8495 33.7641C28.9735 34.1021 29.0365 34.4593 29.0357 34.8192C29.0523 35.5547 28.7917 36.2695 28.3056 36.8218C27.8195 37.374 27.1435 37.7232 26.4118 37.8C25.6802 37.8769 24.9464 37.6758 24.3562 37.2366C23.7659 36.7975 23.3624 36.1524 23.2258 35.4295L28.8495 33.7641Z" fill="#230F0B"/>
<path d="M26.1019 37.8294C25.6204 37.8325 25.146 37.7139 24.7227 37.4846C24.8811 36.8192 25.2629 36.2282 25.8044 35.8103C26.3459 35.3923 27.0144 35.1728 27.6983 35.1882C28.1387 35.1887 28.5742 35.2803 28.9775 35.4572C28.8436 36.1228 28.4847 36.7219 27.961 37.154C27.4372 37.586 26.7807 37.8245 26.1019 37.8294Z" fill="#E8132C"/>
<path d="M27.1774 31.9661C27.1774 32.9453 26.5153 33.7384 25.7016 33.7384C24.8879 33.7384 24.2224 32.9453 24.2224 31.9661C24.2224 30.9869 24.8844 29.7594 25.7016 29.7594C26.5188 29.7594 27.1774 30.9869 27.1774 31.9661Z" fill="#FF6A68"/>
<path d="M31.0246 28.819C31.0246 29.6293 30.7522 30.2879 30.4109 30.2879C30.0695 30.2879 29.7971 29.6293 29.7971 28.819C29.7971 28.0088 30.073 27.3467 30.4109 27.3467C30.7488 27.3467 31.0246 28.0053 31.0246 28.819Z" fill="#25110D"/>
<path d="M33.304 27.2083C33.3833 27.1635 29.9801 25.012 27.8803 25.0913C27.8562 25.1257 27.9217 23.2121 30.7077 24.2155C33.4109 25.3257 33.2799 27.2394 33.304 27.2083Z" fill="#420E2F"/>
<path d="M20.9875 30.2866C21.3265 30.2866 21.6013 29.6289 21.6013 28.8177C21.6013 28.0065 21.3265 27.3489 20.9875 27.3489C20.6486 27.3489 20.3738 28.0065 20.3738 28.8177C20.3738 29.6289 20.6486 30.2866 20.9875 30.2866Z" fill="#25110D"/>
<path d="M17.7846 27.2084C17.7053 27.1636 21.1084 25.012 23.2083 25.0913C23.2359 25.1258 23.1669 23.2122 20.3809 24.2155C17.6811 25.3258 17.8087 27.2394 17.7846 27.2084Z" fill="#420E2F"/>
<path d="M19.5152 33.8078C19.4749 33.8082 19.4349 33.7999 19.398 33.7837C19.333 33.7517 19.2832 33.6955 19.2593 33.6271C19.2354 33.5587 19.2394 33.4837 19.2704 33.4182L20.1289 31.6425C20.1622 31.5805 20.2181 31.5337 20.2851 31.512C20.3521 31.4903 20.4248 31.4954 20.4881 31.5261C20.5514 31.5569 20.6003 31.611 20.6247 31.677C20.649 31.7431 20.6468 31.8159 20.6186 31.8804L19.76 33.6561C19.7378 33.702 19.703 33.7407 19.6596 33.7675C19.6163 33.7944 19.5662 33.8084 19.5152 33.8078Z" fill="#FF6A68"/>
<path d="M17.8017 33.8078C17.7555 33.8086 17.7098 33.7974 17.6691 33.7754C17.6285 33.7534 17.5942 33.7212 17.5695 33.682C17.5449 33.6429 17.5308 33.598 17.5286 33.5518C17.5264 33.5056 17.5362 33.4596 17.5569 33.4182L18.4155 31.6425C18.4487 31.5805 18.5047 31.5337 18.5716 31.512C18.6386 31.4903 18.7113 31.4954 18.7746 31.5261C18.8379 31.5569 18.8869 31.611 18.9112 31.677C18.9355 31.7431 18.9333 31.8159 18.9051 31.8804L18.0466 33.6561C18.024 33.7018 17.9891 33.7402 17.9458 33.767C17.9026 33.7938 17.8526 33.808 17.8017 33.8078Z" fill="#FF6A68"/>
<path d="M31.7215 33.8092C31.6705 33.8093 31.6206 33.7952 31.5774 33.7684C31.5341 33.7416 31.4992 33.7031 31.4766 33.6575L30.6181 31.8818C30.5899 31.8173 30.5877 31.7444 30.612 31.6784C30.6363 31.6123 30.6853 31.5583 30.7486 31.5275C30.8119 31.4968 30.8846 31.4917 30.9516 31.5134C31.0185 31.5351 31.0745 31.5818 31.1077 31.6439L31.9663 33.4196C31.9972 33.4851 32.0012 33.5601 31.9774 33.6285C31.9535 33.6969 31.9037 33.7531 31.8387 33.7851C31.8018 33.8013 31.7618 33.8095 31.7215 33.8092Z" fill="#FF6A68"/>
<path d="M33.4349 33.8093C33.384 33.8094 33.3341 33.7953 33.2908 33.7684C33.2475 33.7416 33.2127 33.7032 33.1901 33.6576L32.335 31.8819C32.3192 31.85 32.3098 31.8153 32.3075 31.7797C32.3051 31.7442 32.3099 31.7086 32.3214 31.6749C32.333 31.6412 32.3511 31.6102 32.3747 31.5836C32.3984 31.5569 32.4271 31.5353 32.4591 31.5198C32.4913 31.5039 32.5262 31.4945 32.562 31.4921C32.5978 31.4897 32.6337 31.4945 32.6677 31.506C32.7016 31.5175 32.733 31.5356 32.7599 31.5593C32.7868 31.583 32.8088 31.6118 32.8246 31.644L33.6797 33.4197C33.711 33.4847 33.7154 33.5594 33.6922 33.6277C33.669 33.6961 33.62 33.7526 33.5556 33.7852C33.5176 33.8018 33.4764 33.81 33.4349 33.8093Z" fill="#FF6A68"/>
<path d="M36.4905 21.6117L31.6322 13.3055L19.8918 16.8604L13.5923 24.4908C14.2961 24.9676 14.9111 25.5639 15.4094 26.2528C15.4094 26.2528 16.099 22.3358 23.6846 22.2393C28.6704 22.1738 30.322 19.0499 30.9737 16.5225C31.1116 19.4705 32.5459 22.5117 34.2768 23.9219C34.7469 24.3484 35.3226 24.6412 35.9442 24.7698C36.5657 24.8983 37.2104 24.858 37.811 24.6529L36.4905 21.6117Z" fill="#420E2F"/>
</g>
<defs>
<clipPath id="clip0_23_1540">
<rect y="0.385071" width="52" height="52" rx="26" fill="white"/>
</clipPath>
</defs>
</svg>
