<svg width="52" height="53" viewBox="0 0 52 53" fill="none" xmlns="http://www.w3.org/2000/svg">
<g clip-path="url(#clip0_23_1430)">
<rect y="0.225037" width="52" height="52" rx="26" fill="#FFDBD1" fill-opacity="0.4"/>
<path d="M8.23434 29.5402C8.55536 27.556 8.90029 25.5104 9.97947 23.8131C10.946 22.2933 12.5306 20.9273 12.4384 19.1275C12.3906 18.2396 11.9227 17.4199 11.8578 16.5286C11.7553 15.1147 12.797 13.7487 14.1425 13.3013C14.6509 13.1226 15.1915 13.0539 15.7284 13.0998C16.2654 13.1457 16.7865 13.3052 17.2571 13.5677V13.5233C18.6744 9.23726 25.9042 7.62532 29.7394 8.42446C31.8177 8.88172 33.741 9.8723 35.3201 11.2987C36.8992 12.7251 38.0796 14.5381 38.7452 16.5593C38.9791 17.4851 39.2641 18.3972 39.5989 19.2914C41.2485 23.0481 44.9129 22.7066 46.0877 28.8026C47.0747 33.9594 44.1957 39.5842 41.3065 41.5035C33.7556 46.5032 20.1156 45.2055 15.3173 43.5765C6.81706 40.6975 7.89282 31.6576 8.23434 29.5402Z" fill="#E83F53"/>
<path d="M10.7615 31.678C10.7615 31.678 10.2697 37.8799 13.8146 42.948C14.2988 43.1863 14.7986 43.3917 15.3104 43.5627C19.6921 45.0517 31.447 46.2572 39.2164 42.6509C40.924 39.8641 41.6924 36.2031 41.0162 31.6644L10.7615 31.678Z" fill="#BF2133"/>
<path d="M29.0154 10.2277C35.2685 11.2249 39.0491 17.5156 39.0491 17.5156C38.9637 17.1946 38.8749 16.8736 38.7759 16.5594C38.1073 14.538 36.9237 12.7256 35.3415 11.301C33.7593 9.87629 31.8333 8.88845 29.7531 8.43478C25.9179 7.63564 18.688 9.24758 17.2708 13.5336V13.578C17.2708 13.578 22.7486 9.22709 29.0154 10.2277Z" fill="#FF7081"/>
<path d="M14.1427 13.3014C13.564 13.4988 13.049 13.8479 12.6513 14.3123C12.2536 14.7766 11.9879 15.3392 11.8818 15.9413C13.411 14.6935 15.2411 13.8692 17.189 13.5508C16.7265 13.2994 16.2167 13.1474 15.6921 13.1045C15.1676 13.0616 14.6398 13.1287 14.1427 13.3014Z" fill="#FF7081"/>
<path d="M15.2385 47.1756C21.2423 44.7611 23.2163 41.7627 22.704 37.4425H29.302C28.7898 41.7627 30.7671 44.7611 36.7675 47.1756C42.7679 49.5901 43.5739 52.2266 43.5739 52.2266H8.43555C8.43555 52.2266 9.2381 49.5901 15.2385 47.1756Z" fill="#FFDF57"/>
<path d="M29.302 37.4425H22.704C23.0762 40.5844 22.1302 43.0263 19.2888 45.0548C20.1726 46.0001 21.2366 46.7591 22.4181 47.2872C23.5995 47.8153 24.8747 48.1017 26.1685 48.1297C27.4623 48.1577 28.7486 47.9267 29.9519 47.4503C31.1551 46.9738 32.2509 46.2615 33.1748 45.3554C29.9748 43.2687 28.9127 40.7415 29.302 37.4425Z" fill="#FFA3A3"/>
<path d="M26.8157 37.4424H22.7176C22.9601 39.4915 22.6425 41.2264 21.6111 42.753C22.9527 43.4833 24.4622 43.8494 25.9893 43.8151C27.5454 43.7472 29.0835 43.4539 30.5553 42.9442C29.4215 41.3698 29.0663 39.5667 29.3156 37.4424H26.8157Z" fill="#FF8282"/>
<path d="M17.4201 29.649C18.5232 31.7595 18.0622 34.1808 16.3956 35.0551C14.729 35.9294 12.4716 34.9288 11.3685 32.8182C10.2654 30.7076 10.7265 28.2897 12.3931 27.4155C14.0597 26.5412 16.3171 27.5589 17.4201 29.649Z" fill="#FF8282"/>
<path d="M16.4536 33.6787C16.4536 33.5933 16.4297 33.5182 16.4195 33.4362C16.4195 33.4977 16.44 33.5455 16.4468 33.5865C16.4474 33.2255 16.385 32.8673 16.2624 32.5278C16.0379 31.5234 15.5162 30.6099 14.7651 29.9063C14.014 29.2028 13.0684 28.7417 12.0515 28.5833C13.3936 29.356 14.5573 30.4034 15.4666 31.6569C14.2679 31.1686 12.4101 32.2068 12.4101 32.2068C14.6129 31.6228 15.6135 32.1043 16.0745 32.6644C16.238 32.9875 16.3651 33.3276 16.4536 33.6787Z" fill="#FF4F4F"/>
<path d="M34.3458 29.649C33.2427 31.7595 33.7038 34.1808 35.3704 35.0551C37.037 35.9294 39.2944 34.9288 40.3974 32.8182C41.5005 30.7076 41.0395 28.2897 39.3729 27.4155C37.7063 26.5412 35.4489 27.5589 34.3458 29.649Z" fill="#FF8282"/>
<path d="M35.3157 33.6787C35.3157 33.5933 35.3362 33.5182 35.3464 33.4362C35.335 33.4857 35.327 33.5359 35.3225 33.5865C35.3209 33.2258 35.3822 32.8675 35.5035 32.5278C35.7279 31.5234 36.2497 30.6099 37.0008 29.9063C37.7519 29.2028 38.6975 28.7417 39.7144 28.5833C38.3738 29.358 37.2104 30.4051 36.2992 31.6569C37.5014 31.1686 39.3558 32.2068 39.3558 32.2068C37.153 31.6228 36.1524 32.1043 35.6913 32.6644C35.5277 32.987 35.4017 33.3273 35.3157 33.6787Z" fill="#FF4F4F"/>
<path d="M25.976 42.071C33.339 41.6578 36.3648 37.4196 36.3648 31.6787V25.2412C36.3652 24.2269 36.1658 23.2224 35.778 22.2852C35.3902 21.348 34.8215 20.4964 34.1044 19.779C33.3873 19.0616 32.536 18.4925 31.5989 18.1043C30.6618 17.716 29.6575 17.5162 28.6432 17.5162H23.3053C19.0398 17.5162 18.0221 19.9238 17.2537 25.9789C17.0659 27.4508 15.5461 29.3052 15.5837 31.6787C15.6349 37.4196 21.5021 42.3237 25.976 42.071Z" fill="#FDBFA8"/>
<path opacity="0.47" d="M25.7437 35.8896C25.7437 35.8896 28.1342 36.1048 29.2442 34.6772C29.2442 34.6772 29.3227 36.0433 28.1103 36.4224C26.898 36.8015 25.7437 35.8896 25.7437 35.8896Z" fill="#FF8282"/>
<path d="M31.1225 28.8026C31.1225 29.6052 30.839 30.2575 30.4873 30.2575C30.1355 30.2575 29.8521 29.6052 29.8521 28.8026C29.8521 28.0001 30.1355 27.3478 30.4873 27.3478C30.839 27.3478 31.1225 27.9967 31.1225 28.8026Z" fill="#2E230E"/>
<path d="M20.8975 28.8026C20.8975 29.6052 21.1809 30.2575 21.5327 30.2575C21.8844 30.2575 22.185 29.6086 22.185 28.8026C22.185 27.9967 21.9015 27.3444 21.5498 27.3478C21.198 27.3512 20.8975 27.9967 20.8975 28.8026Z" fill="#2E230E"/>
<path d="M18.3772 27.0748C18.3772 27.0748 21.6421 25.3194 23.394 25.1043C23.3064 24.8462 23.166 24.6091 22.9817 24.4082C22.7974 24.2074 22.5734 24.0471 22.3238 23.9375C22.0741 23.828 21.8045 23.7716 21.5319 23.772C21.2593 23.7724 20.9898 23.8295 20.7405 23.9397C20.0742 24.1596 19.491 24.5775 19.0687 25.1378C18.6464 25.698 18.4051 26.3738 18.3772 27.0748Z" fill="#A31727"/>
<path d="M33.571 27.0749C33.571 27.0749 30.3062 25.3195 28.5542 25.1043C28.6423 24.8465 28.783 24.6099 28.9673 24.4093C29.1517 24.2087 29.3757 24.0486 29.6251 23.9391C29.8746 23.8296 30.1441 23.7731 30.4165 23.7733C30.689 23.7734 30.9584 23.8301 31.2078 23.9398C31.874 24.1596 32.4572 24.5776 32.8796 25.1378C33.3019 25.6981 33.5431 26.3739 33.571 27.0749Z" fill="#A31727"/>
<path d="M27.5708 31.8149C27.5832 31.9795 27.5616 32.1448 27.5071 32.3006C27.4527 32.4564 27.3667 32.5993 27.2545 32.7203C27.1423 32.8414 27.0063 32.9379 26.855 33.0039C26.7038 33.0699 26.5405 33.104 26.3755 33.104C26.2104 33.104 26.0472 33.0699 25.8959 33.0039C25.7447 32.9379 25.6087 32.8414 25.4965 32.7203C25.3843 32.5993 25.2982 32.4564 25.2438 32.3006C25.1894 32.1448 25.1677 31.9795 25.1802 31.8149C25.1802 31.1319 25.7163 29.3355 26.3789 29.3355C27.0414 29.3355 27.5708 31.1387 27.5708 31.8149Z" fill="#FF8282"/>
<path d="M20.8971 33.7447C20.8549 33.7454 20.8131 33.7372 20.7742 33.7208C20.7414 33.7062 20.7119 33.685 20.6875 33.6587C20.663 33.6323 20.6442 33.6013 20.6321 33.5675C20.62 33.5337 20.6148 33.4977 20.6169 33.4619C20.619 33.426 20.6284 33.391 20.6444 33.3588L21.5323 31.6C21.5673 31.5352 21.6257 31.4864 21.6956 31.4635C21.7655 31.4406 21.8416 31.4455 21.908 31.4771C21.9697 31.5061 22.0177 31.5579 22.0419 31.6216C22.0661 31.6853 22.0646 31.7559 22.0378 31.8186L21.1499 33.5774C21.1279 33.6263 21.0925 33.668 21.0477 33.6977C21.003 33.7273 20.9508 33.7436 20.8971 33.7447Z" fill="#FF8282"/>
<path d="M19.1109 33.7447C19.0687 33.7454 19.0268 33.7372 18.9879 33.7208C18.9552 33.7061 18.9257 33.685 18.9011 33.6587C18.8766 33.6324 18.8576 33.6015 18.8452 33.5678C18.8328 33.5341 18.8273 33.4982 18.8289 33.4623C18.8305 33.4265 18.8393 33.3913 18.8548 33.3588L19.7461 31.6C19.781 31.5352 19.8395 31.4864 19.9094 31.4635C19.9793 31.4406 20.0553 31.4455 20.1218 31.4771C20.1834 31.5061 20.2314 31.5579 20.2556 31.6216C20.2799 31.6853 20.2784 31.7559 20.2515 31.8186L19.3636 33.5774C19.3416 33.6263 19.3062 33.668 19.2615 33.6977C19.2168 33.7273 19.1645 33.7436 19.1109 33.7447Z" fill="#FF8282"/>
<path d="M31.6581 33.7445C31.6058 33.7452 31.5543 33.7316 31.5091 33.7051C31.464 33.6786 31.4269 33.6403 31.402 33.5942L30.5141 31.8354C30.4883 31.7723 30.4878 31.7017 30.5126 31.6381C30.5374 31.5746 30.5856 31.523 30.6473 31.4939C30.7137 31.4623 30.7897 31.4575 30.8597 31.4804C30.9296 31.5032 30.988 31.5521 31.0229 31.6169L31.9109 33.3756C31.9273 33.4079 31.9369 33.4432 31.939 33.4794C31.9412 33.5155 31.9358 33.5517 31.9233 33.5857C31.9108 33.6197 31.8914 33.6507 31.8664 33.6769C31.8413 33.703 31.8111 33.7237 31.7777 33.7377C31.7388 33.7483 31.698 33.7506 31.6581 33.7445Z" fill="#FF8282"/>
<path d="M33.0549 33.5909C33.0028 33.5907 32.9518 33.5762 32.9072 33.5492C32.8627 33.5221 32.8264 33.4834 32.8022 33.4372L31.9143 31.6785C31.8983 31.6466 31.889 31.6117 31.8869 31.5761C31.8848 31.5405 31.89 31.5048 31.9022 31.4713C31.9143 31.4378 31.9332 31.407 31.9575 31.381C31.9819 31.355 32.0114 31.3342 32.044 31.3199C32.1108 31.2877 32.1874 31.2829 32.2576 31.3065C32.3278 31.3301 32.386 31.3803 32.4197 31.4462L33.3077 33.2016C33.3237 33.2338 33.333 33.2688 33.3351 33.3047C33.3373 33.3406 33.3321 33.3765 33.32 33.4103C33.3079 33.4441 33.289 33.4751 33.2646 33.5015C33.2402 33.5278 33.2107 33.549 33.1779 33.5636C33.1391 33.5807 33.0973 33.59 33.0549 33.5909Z" fill="#FF8282"/>
<path d="M25.9212 35.1413C25.2998 35.1419 24.6814 35.0557 24.0838 34.8852C23.9974 34.8584 23.925 34.7984 23.8828 34.7184C23.8405 34.6383 23.8318 34.5448 23.8584 34.4583C23.8717 34.4151 23.8933 34.3749 23.9222 34.3402C23.951 34.3054 23.9865 34.2767 24.0265 34.2557C24.0665 34.2348 24.1103 34.222 24.1553 34.218C24.2004 34.2141 24.2457 34.2192 24.2887 34.2329C24.3161 34.2329 27.3624 35.1652 28.9743 33.123C29.03 33.0514 29.1119 33.0049 29.2018 32.9937C29.2918 32.9825 29.3826 33.0075 29.4541 33.0632C29.5257 33.1189 29.5722 33.2007 29.5834 33.2907C29.5946 33.3807 29.5696 33.4715 29.5139 33.543C29.0806 34.0705 28.5302 34.4896 27.9066 34.7671C27.2829 35.0445 26.6031 35.1727 25.9212 35.1413Z" fill="#FF8282"/>
<path d="M34.0114 16.0501L26.522 14.1581L16.1434 17.5152L15.6721 30.6327C17.3148 28.6417 19.1453 22.4056 20.0469 19.0383C22.6253 23.6726 30.8592 24.021 34.7696 23.9117C34.8105 29.5672 36.3132 31.6777 36.3132 31.6777L36.8699 23.8024L34.0114 16.0501Z" fill="#E83F53"/>
</g>
<defs>
<clipPath id="clip0_23_1430">
<rect y="0.225037" width="52" height="52" rx="26" fill="white"/>
</clipPath>
</defs>
</svg>
