<svg width="52" height="53" viewBox="0 0 52 53" fill="none" xmlns="http://www.w3.org/2000/svg">
<g clip-path="url(#clip0_23_1486)">
<rect y="0.305054" width="52" height="52" rx="26" fill="#FFDBD1" fill-opacity="0.4"/>
<path d="M43.864 27.5839C43.864 27.5839 42.0606 33.5705 32.8525 29.3519V22.2797C32.8525 22.2797 38.3406 25.1934 42.4001 24.4685C44.6243 24.0513 43.864 27.5839 43.864 27.5839Z" fill="#078C81"/>
<path d="M37.3081 46.9054C30.8901 44.324 28.779 41.1168 29.3271 36.4986H22.2548C22.8029 41.1168 20.6919 44.324 14.2738 46.9054C7.85575 49.4868 7 52.3051 7 52.3051H44.5819C44.5819 52.3051 43.7227 49.4726 37.3081 46.9054Z" fill="#E83F53"/>
<path d="M17.6755 45.2329L17.8665 45.3849C20.2781 47.3121 23.0186 48.3305 25.798 48.3305C28.7009 48.2845 31.5003 47.2449 33.7295 45.3849L33.9205 45.2329C33.7012 45.102 33.4891 44.9677 33.2875 44.8333C31.0633 46.6014 28.5138 47.6233 25.798 47.6233C23.0823 47.6233 20.5327 46.6084 18.3085 44.8333C18.1069 44.9677 17.8948 45.102 17.6755 45.2329Z" fill="#252525"/>
<path d="M18.3049 44.833C20.5292 46.6011 23.0787 47.623 25.7944 47.623C28.5102 47.623 31.0597 46.6082 33.284 44.833C29.9989 42.623 28.9098 39.9532 29.3235 36.4843H22.2512C22.6827 39.9532 21.5935 42.623 18.3049 44.833Z" fill="#FD9A8B"/>
<path d="M29.327 36.4843H22.2548C22.5306 38.804 22.131 40.7665 20.8403 42.4744C22.3484 43.3204 24.0475 43.7671 25.7766 43.772C27.5057 43.777 29.2074 43.3401 30.7203 42.5027C29.4543 40.7877 29.0477 38.8181 29.327 36.4843Z" fill="#FD7058"/>
<path d="M16.9683 28.7827C18.1141 30.9751 17.6331 33.4857 15.9075 34.3945C14.1819 35.3033 11.8339 34.2637 10.6917 32.0748C9.54956 29.886 10.0234 27.3718 11.7526 26.463C13.4817 25.5542 15.8297 26.5938 16.9683 28.7827Z" fill="#FD8977"/>
<path d="M15.9604 32.9661C15.9604 32.8777 15.9392 32.7999 15.9286 32.715C15.9407 32.7662 15.949 32.8182 15.9533 32.8706C15.955 32.4971 15.8915 32.1262 15.7659 31.7744C15.5328 30.733 14.991 29.786 14.2113 29.0574C13.4315 28.3287 12.4501 27.8523 11.3953 27.6902C12.7832 28.4925 13.9878 29.5766 14.9314 30.8727C13.6867 30.3635 11.7489 31.4385 11.7489 31.4385C14.0332 30.8338 15.0764 31.3359 15.5538 31.9194C15.729 32.2515 15.8654 32.6027 15.9604 32.9661Z" fill="#FD5F47"/>
<path d="M34.5359 28.7827C33.3902 30.9751 33.8711 33.4857 35.5967 34.3945C37.3223 35.3033 39.6703 34.2637 40.816 32.0748C41.9617 29.886 41.4808 27.3718 39.7552 26.463C38.0296 25.5542 35.6816 26.5938 34.5359 28.7827Z" fill="#FD8977"/>
<path d="M35.5403 32.9661C35.5403 32.8777 35.565 32.7999 35.5721 32.715C35.5721 32.7751 35.5509 32.8282 35.5474 32.8706C35.5467 32.4969 35.6113 32.1259 35.7383 31.7744C35.9714 30.733 36.5132 29.786 37.293 29.0574C38.0727 28.3287 39.0541 27.8523 40.109 27.6902C38.7206 28.492 37.516 29.5762 36.5728 30.8727C37.8211 30.3635 39.7553 31.4385 39.7553 31.4385C37.4675 30.8338 36.4279 31.3359 35.9505 31.9194C35.7754 32.252 35.6378 32.6031 35.5403 32.9661Z" fill="#FD5F47"/>
<path d="M37.9552 23.719C37.9552 23.719 39.0407 32.8705 34.419 34.0515L30.5293 28.1003L32.5166 16.8801L37.9552 23.719Z" fill="#1E1C36"/>
<path d="M13.4958 22.828C13.4958 22.828 12.8982 30.5085 16.3813 32.9731L18.8106 16.3746L13.4958 22.828Z" fill="#1E1C36"/>
<path d="M22.5482 16.3252C20.6146 16.3251 18.7591 17.0878 17.3846 18.4478C16.0101 19.8077 15.2277 21.655 15.2072 23.5884L15.1365 30.5864C15.1365 36.9832 19.8855 42.1707 25.7448 42.1707C31.6042 42.1707 36.3532 36.9832 36.3532 30.5864L36.332 23.1605C36.3273 21.3461 35.6032 19.6075 34.3186 18.3261C33.0339 17.0448 31.2935 16.3252 29.479 16.3252H22.5482Z" fill="#EBB084"/>
<path opacity="0.49" d="M36.3392 25.1514V23.1605C36.3345 21.3461 35.6104 19.6075 34.3257 18.3261C33.041 17.0448 31.3006 16.3252 29.4861 16.3252H22.5483C20.6147 16.3251 18.7592 17.0878 17.3847 18.4478C16.0102 19.8077 15.2278 21.655 15.2073 23.5884V23.7581C19.3233 22.8281 26.6148 22.1527 36.3392 25.1514Z" fill="#FD7058"/>
<path d="M31.215 27.5279C31.215 28.3624 30.9321 29.0378 30.5821 29.0378C30.232 29.0378 29.9526 28.3624 29.9526 27.5279C29.9526 26.6934 30.2355 26.0215 30.5821 26.0215C30.9286 26.0215 31.215 26.6969 31.215 27.5279Z" fill="#25110D"/>
<path d="M33.5489 25.8801C33.6302 25.8306 30.1401 23.6276 27.9866 23.7054C27.9618 23.7408 28.029 21.7817 30.8862 22.8072C33.6585 23.9494 33.51 25.9119 33.5489 25.8801Z" fill="#1E1C36"/>
<path d="M20.9217 29.0343C21.2693 29.0343 21.5511 28.3598 21.5511 27.5279C21.5511 26.6959 21.2693 26.0215 20.9217 26.0215C20.574 26.0215 20.2922 26.6959 20.2922 27.5279C20.2922 28.3598 20.574 29.0343 20.9217 29.0343Z" fill="#25110D"/>
<path d="M17.633 25.8801C17.5517 25.8306 21.0418 23.6276 23.1953 23.7054C23.2236 23.7408 23.1529 21.7817 20.2957 22.8072C17.5269 23.9494 17.6577 25.9119 17.633 25.8801Z" fill="#1E1C36"/>
<path d="M19.4082 32.6478C19.3664 32.6485 19.325 32.6388 19.2879 32.6195C19.2215 32.5874 19.1705 32.5304 19.146 32.4608C19.1215 32.3913 19.1255 32.3148 19.1571 32.2482L20.0376 30.4271C20.0527 30.3927 20.0746 30.3616 20.102 30.3358C20.1293 30.31 20.1617 30.29 20.1969 30.277C20.2322 30.264 20.2698 30.2583 20.3074 30.2602C20.3449 30.262 20.3817 30.2715 20.4156 30.2879C20.4494 30.3044 20.4796 30.3275 20.5043 30.3558C20.5289 30.3842 20.5476 30.4173 20.5592 30.4531C20.5708 30.4889 20.5751 30.5266 20.5717 30.5641C20.5684 30.6016 20.5575 30.638 20.5397 30.6711L19.6592 32.4922C19.6368 32.5396 19.6012 32.5794 19.5566 32.607C19.5121 32.6346 19.4605 32.6488 19.4082 32.6478Z" fill="#FD5F44"/>
<path d="M17.6506 32.6478C17.6087 32.649 17.5673 32.6393 17.5303 32.6195C17.4971 32.604 17.4674 32.582 17.4428 32.5548C17.4182 32.5277 17.3992 32.4959 17.387 32.4613C17.3748 32.4268 17.3697 32.3901 17.3718 32.3535C17.374 32.3169 17.3834 32.2811 17.3995 32.2482L18.28 30.4271C18.2951 30.3927 18.317 30.3616 18.3444 30.3358C18.3718 30.31 18.4041 30.29 18.4394 30.277C18.4747 30.264 18.5122 30.2583 18.5498 30.2602C18.5874 30.262 18.6242 30.2715 18.658 30.2879C18.6918 30.3044 18.722 30.3275 18.7467 30.3558C18.7714 30.3842 18.7901 30.4173 18.8016 30.4531C18.8132 30.4889 18.8175 30.5266 18.8141 30.5641C18.8108 30.6016 18.7999 30.638 18.7821 30.6711L17.9016 32.4922C17.8785 32.539 17.8427 32.5784 17.7984 32.6059C17.754 32.6334 17.7028 32.6479 17.6506 32.6478Z" fill="#FD5F44"/>
<path d="M31.9264 32.6478C31.8742 32.6479 31.823 32.6334 31.7786 32.6059C31.7342 32.5784 31.6985 32.539 31.6753 32.4922L30.7948 30.6711C30.7771 30.638 30.7662 30.6016 30.7628 30.5641C30.7595 30.5266 30.7637 30.4889 30.7753 30.4531C30.7869 30.4173 30.8056 30.3842 30.8303 30.3558C30.855 30.3275 30.8851 30.3044 30.919 30.2879C30.9528 30.2715 30.9896 30.262 31.0272 30.2602C31.0647 30.2583 31.1023 30.264 31.1376 30.277C31.1729 30.29 31.2052 30.31 31.2326 30.3358C31.26 30.3616 31.2819 30.3927 31.297 30.4271L32.1775 32.2482C32.1936 32.2811 32.203 32.3169 32.2052 32.3535C32.2073 32.3901 32.2021 32.4268 32.1899 32.4613C32.1778 32.4959 32.1588 32.5277 32.1342 32.5548C32.1096 32.582 32.0798 32.604 32.0466 32.6195C32.0095 32.6388 31.9682 32.6485 31.9264 32.6478Z" fill="#FD5F44"/>
<path d="M33.684 32.6478C33.6317 32.6479 33.5806 32.6334 33.5362 32.6059C33.4918 32.5784 33.456 32.539 33.4329 32.4922L32.5559 30.6711C32.5239 30.6044 32.5193 30.5278 32.5431 30.4577C32.5669 30.3876 32.6172 30.3297 32.6832 30.2963C32.7505 30.2654 32.8271 30.2618 32.897 30.2862C32.9669 30.3106 33.0246 30.3611 33.0581 30.4271L33.935 32.2482C33.9513 32.2809 33.9609 32.3165 33.9633 32.3529C33.9657 32.3894 33.9608 32.4259 33.9489 32.4604C33.9371 32.495 33.9185 32.5268 33.8943 32.5541C33.87 32.5814 33.8406 32.6037 33.8077 32.6195C33.7695 32.6392 33.7269 32.649 33.684 32.6478Z" fill="#FD5F44"/>
<path d="M23.2554 34.6742C23.121 34.5858 22.9973 34.4974 22.9018 34.4126C22.8634 34.3926 22.8299 34.3645 22.8035 34.3303C22.7771 34.296 22.7585 34.2564 22.749 34.2143C22.7395 34.1721 22.7393 34.1283 22.7484 34.0861C22.7576 34.0438 22.7759 34.0041 22.802 33.9696C22.8281 33.9351 22.8614 33.9068 22.8996 33.8865C22.9378 33.8663 22.98 33.8546 23.0232 33.8523C23.0663 33.8501 23.1095 33.8573 23.1496 33.8734C23.1897 33.8895 23.2258 33.9142 23.2554 33.9458C23.358 34.0271 25.7519 35.9013 27.4563 34.1968C27.5127 34.1407 27.5889 34.1092 27.6685 34.1092C27.748 34.1092 27.8243 34.1407 27.8807 34.1968C27.9084 34.2244 27.9303 34.2572 27.9453 34.2933C27.9603 34.3294 27.968 34.3681 27.968 34.4072C27.968 34.4463 27.9603 34.4851 27.9453 34.5212C27.9303 34.5573 27.9084 34.59 27.8807 34.6176C26.399 36.1064 24.3834 35.4097 23.2554 34.6742Z" fill="#FD5F44"/>
<path d="M23.0044 32.0538C23.0044 32.0538 25.7909 33.4682 28.5738 32.0538C28.5738 32.0538 29.1431 30.1124 25.7909 30.123C22.5482 30.116 23.0044 32.0538 23.0044 32.0538Z" fill="#FD5F44"/>
<path d="M37.9553 23.7191C37.9553 23.7191 22.3257 19.0019 13.496 22.828C13.496 22.828 13.0327 15.6991 15.1792 13.3547C17.2478 11.0916 21.721 8.88501 26.1411 9.03353C31.509 9.21387 36.7849 12.1524 37.5098 13.4254C40.123 18.0471 37.9553 23.7191 37.9553 23.7191Z" fill="#0AC2B2"/>
<path d="M20.1226 20.0626V21.3993C23.8602 21.1588 27.8172 21.5973 31.0527 22.156L31.2472 20.4162L25.3772 17.308L20.1226 20.0626Z" fill="#078C81"/>
<path d="M24.3555 9.0441C24.3555 9.45429 25.236 9.78669 26.3216 9.78669C27.4071 9.78669 28.2876 9.45429 28.2876 9.0441C28.2876 8.63391 27.4071 8.30505 26.3216 8.30505C25.236 8.30505 24.3555 8.63745 24.3555 9.0441Z" fill="#078C81"/>
<path d="M31.2472 20.4164C31.2472 20.4164 25.1898 18.6484 20.1226 20.0628C20.1226 20.0628 20.8298 14.8753 25.2323 14.2424C29.6347 13.6094 31.2472 20.4164 31.2472 20.4164Z" fill="#1E1C36"/>
</g>
<defs>
<clipPath id="clip0_23_1486">
<rect y="0.305054" width="52" height="52" rx="26" fill="white"/>
</clipPath>
</defs>
</svg>
